<svg width="1200" height="900" viewBox="0 0 1200 900" fill="none" xmlns="http://www.w3.org/2000/svg">
  <rect width="1200" height="900" fill="#F8F0E7"/>
  <rect x="74" y="70" width="1052" height="760" rx="34" fill="#FFF9F1" stroke="#DEC3AF" stroke-width="4"/>
  <rect x="120" y="118" width="504" height="306" rx="24" fill="#EFE0D1"/>
  <rect x="154" y="158" width="196" height="18" rx="9" fill="#AD705A"/>
  <rect x="154" y="192" width="304" height="14" rx="7" fill="#D2B8A8"/>
  <rect x="154" y="222" width="238" height="14" rx="7" fill="#D2B8A8"/>
  <rect x="154" y="266" width="432" height="126" rx="20" fill="#FFF9F1" stroke="#D9BCAA" stroke-width="3"/>
  <path d="M222 352C246 330.667 286.8 288 314 288C341.2 288 380 318.667 396 334.667L452 304L522 360" stroke="#355748" stroke-width="8" stroke-linecap="round" stroke-linejoin="round"/>
  <circle cx="222" cy="352" r="16" fill="#355748"/>
  <circle cx="314" cy="288" r="16" fill="#355748"/>
  <circle cx="396" cy="334" r="16" fill="#355748"/>
  <circle cx="452" cy="304" r="16" fill="#355748"/>
  <circle cx="522" cy="360" r="16" fill="#355748"/>
  <rect x="676" y="118" width="404" height="482" rx="26" fill="#FDF6EE" stroke="#DAC0AE" stroke-width="3"/>
  <rect x="712" y="158" width="336" height="214" rx="20" fill="#C06C56"/>
  <rect x="744" y="406" width="272" height="16" rx="8" fill="#AD705A"/>
  <rect x="744" y="436" width="220" height="12" rx="6" fill="#D1B8A8"/>
  <rect x="744" y="460" width="248" height="12" rx="6" fill="#D1B8A8"/>
  <rect x="744" y="498" width="136" height="46" rx="16" fill="#355748"/>
  <rect x="120" y="474" width="476" height="302" rx="24" fill="#FAF2E8" stroke="#D7B8A4" stroke-width="3"/>
  <rect x="156" y="516" width="198" height="220" rx="18" fill="#F1E2D4"/>
  <rect x="382" y="516" width="176" height="84" rx="18" fill="#E8D3C2"/>
  <rect x="382" y="620" width="176" height="116" rx="18" fill="#FFF9F1" stroke="#D6B8A4" stroke-width="3"/>
  <rect x="408" y="646" width="124" height="12" rx="6" fill="#AD705A"/>
  <rect x="408" y="670" width="94" height="10" rx="5" fill="#D1B8A8"/>
  <rect x="408" y="692" width="114" height="10" rx="5" fill="#D1B8A8"/>
  <path d="M194 680C230 630 272 594 320 566" stroke="#B05C49" stroke-width="9" stroke-linecap="round"/>
  <circle cx="194" cy="680" r="14" fill="#B05C49"/>
  <circle cx="320" cy="566" r="14" fill="#B05C49"/>
  <rect x="676" y="646" width="404" height="130" rx="24" fill="#355748"/>
  <rect x="710" y="682" width="180" height="14" rx="7" fill="#F9F1E7"/>
  <rect x="710" y="708" width="144" height="10" rx="5" fill="#C7E0D6" fill-opacity="0.72"/>
  <rect x="928" y="680" width="116" height="52" rx="18" fill="#F4C9AF"/>
</svg>