<svg width="1200" height="900" viewBox="0 0 1200 900" fill="none" xmlns="http://www.w3.org/2000/svg">
  <rect width="1200" height="900" fill="#09141A"/>
  <rect x="86" y="82" width="1028" height="736" rx="34" fill="#0D1E25" stroke="#1A4450" stroke-width="4"/>
  <rect x="126" y="124" width="430" height="650" rx="24" fill="#102932"/>
  <rect x="164" y="164" width="160" height="16" rx="8" fill="#71E6FF"/>
  <rect x="164" y="194" width="214" height="12" rx="6" fill="#2D606E"/>
  <rect x="164" y="230" width="354" height="88" rx="18" fill="#09141A" stroke="#1D4651" stroke-width="3"/>
  <rect x="164" y="344" width="354" height="88" rx="18" fill="#09141A" stroke="#1D4651" stroke-width="3"/>
  <rect x="164" y="458" width="354" height="88" rx="18" fill="#09141A" stroke="#1D4651" stroke-width="3"/>
  <rect x="164" y="572" width="354" height="156" rx="18" fill="#09141A" stroke="#1D4651" stroke-width="3"/>
  <circle cx="198" cy="274" r="18" fill="#D8FF73"/>
  <circle cx="198" cy="388" r="18" fill="#71E6FF"/>
  <circle cx="198" cy="502" r="18" fill="#71E6FF" fill-opacity="0.72"/>
  <circle cx="198" cy="616" r="18" fill="#D8FF73" fill-opacity="0.8"/>
  <rect x="596" y="124" width="478" height="228" rx="24" fill="#09141A" stroke="#1C4550" stroke-width="3"/>
  <rect x="632" y="162" width="148" height="16" rx="8" fill="#71E6FF"/>
  <rect x="632" y="192" width="228" height="12" rx="6" fill="#2D606E"/>
  <rect x="632" y="228" width="404" height="86" rx="18" fill="#102932"/>
  <rect x="596" y="390" width="222" height="384" rx="24" fill="#102932"/>
  <rect x="630" y="426" width="154" height="16" rx="8" fill="#D8FF73"/>
  <rect x="630" y="454" width="114" height="10" rx="5" fill="#2D606E"/>
  <rect x="630" y="494" width="154" height="170" rx="18" fill="#09141A" stroke="#1C4550" stroke-width="3"/>
  <rect x="852" y="390" width="222" height="182" rx="24" fill="#102932"/>
  <rect x="886" y="426" width="154" height="16" rx="8" fill="#71E6FF"/>
  <rect x="886" y="454" width="114" height="10" rx="5" fill="#2D606E"/>
  <rect x="852" y="592" width="222" height="182" rx="24" fill="#102932"/>
  <rect x="886" y="628" width="154" height="16" rx="8" fill="#D8FF73"/>
  <rect x="886" y="656" width="114" height="10" rx="5" fill="#2D606E"/>
  <path d="M706 710L746 670L786 710" stroke="#71E6FF" stroke-width="8" stroke-linecap="round" stroke-linejoin="round"/>
  <path d="M702 690H790" stroke="#71E6FF" stroke-width="8" stroke-linecap="round"/>
</svg>